<svg xmlns="http://www.w3.org/2000/svg" xmlns:xlink="http://www.w3.org/1999/xlink" xmlns:inkscape="http://www.inkscape.org/namespaces/inkscape" version="1.1" width="607.39608" height="483.8482" viewBox="0 0 607.39608 483.8482">
<defs>
<clipPath id="clip_1">
<path transform="matrix(1,0,0,-1,-92.30179,547.9242)" d="M92.301799 64.07599H699.6979V547.9242H92.301799Z"/>
</clipPath>
<clipPath id="clip_2">
<path transform="matrix(1,0,0,-1,-92.30179,547.9242)" d="M0 0H792V612H0Z"/>
</clipPath>
<clipPath id="clip_3">
<path transform="matrix(1,0,0,-1,-92.30179,547.9242)" d="M0 612H792V0H0Z"/>
</clipPath>
</defs>
<g clip-path="url(#clip_1)">
<g clip-path="url(#clip_2)">
<g inkscape:groupmode="layer" inkscape:label="Capa 1">
<g clip-path="url(#clip_3)">
<path transform="matrix(1,0,0,-1,380.2755,48.005708)" d="M0 0C5.457-11.219 8.524-23.805 8.524-37.096V-56.738C.649-55.842 0-48.094 0-45.617ZM8.524-72.523V-76.902H-.392-.8C-14.844-76.902-19.849-66.077-19.849-55.948V26.272C-15.037 21.96-10.729 17.105-6.997 11.812-6.885 10.458-6.807 9.065-6.807 7.587V-45.617C-6.807-55.833-.708-62.861 8.524-63.566ZM8.524-96.976H-11.605C-13.571-96.976-15.552-96.783-17.51-96.424-20.141-95.942-22.713-95.11-25.13-93.895-33.315-89.78-39.636-81.218-39.636-66.28V39.561C-35.064 37.348-30.73 34.725-26.656 31.763V-55.948C-26.656-69.145-20.076-78.878-9.616-82.326-6.917-83.216-3.972-83.709-.8-83.709H1.385 8.524ZM8.524-108.265V-117.127H-6.51-17.67-22.846C-27.789-117.127-32.299-116.359-36.375-114.967-38.66-114.187-40.799-113.201-42.784-112.014-53.612-105.538-59.859-93.203-59.859-76.687V46.347C-55.241 45.423-50.761 44.117-46.444 42.477V-66.28C-46.444-81.221-40.534-92.658-30.516-98.787-28.459-100.045-26.231-101.079-23.84-101.871-20.12-103.102-16.039-103.783-11.605-103.783H2.243 8.524Z" fill="#e4361f"/>
<path transform="matrix(1,0,0,-1,305.625,228.5929)" d="M0 0C-2.052 1.686-4.217 3.316-6.521 4.876-30.315 20.981-58.114 27.581-86.981 24.413-86.995 25.036-87.029 25.654-87.029 26.28V35.095C-54.564 39.045-23.297 31.985 3.5 14.314 2.136 9.629 .968 4.852 0 0M-3.485-33.625C-7.728-24.66-14.641-16.896-24.163-10.452-42.151 1.727-62.921 7.302-84.595 6.117-85.505 9.849-86.188 13.67-86.586 17.576-64.67 20.038-37.167 17.399-10.337-.761-7.066-2.976-4.093-5.335-1.387-7.817-2.68-16.251-3.378-24.881-3.485-33.625M-5.346-58.735C-10.102-58.546-14.762-57.978-19.288-57.036-19.412-55.84-19.575-54.64-19.802-53.437-21.95-42.06-28.522-32.578-39.337-25.258-50.951-17.395-64.036-13.034-77.773-12.241-79.671-8.52-81.301-4.645-82.641-.635-66.218 .019-46.891-3.289-27.979-16.089-15.864-24.289-8.521-34.785-6.151-47.285-5.424-51.119-5.206-54.963-5.346-58.735M-73.639-19.454C-63.918-20.615-53.454-23.923-43.153-30.895-33.907-37.153-28.303-45.152-26.497-54.664-26.462-54.848-26.439-55.032-26.407-55.216-46.093-49.292-62.783-36.416-73.639-19.454" fill="#e4361f"/>
<path transform="matrix(1,0,0,-1,388.79994,177.10349)" d="M0 0C-11.493-4.915-23.211-13.117-33.144-26.588-40.286-36.273-45.255-47.706-47.927-60.038-48.761-63.886-49.359-67.825-49.741-71.823-50.676-81.622-50.221-91.79-48.357-101.96-51.695-103.564-55.16-104.941-58.721-106.105-59.147-106.245-59.569-106.396-59.998-106.529-61.216-98.451-61.74-90.408-61.621-82.49-61.487-73.485-60.539-64.645-58.723-56.144-58.13-53.372-57.423-50.648-56.654-47.951-52.913-34.815-47.13-22.634-39.344-12.075-34.394-5.363-29.096 .313-23.612 5.164H0ZM0-25.209C0-26.247-.042-27.275-.079-28.304-7.483-31.277-15.101-36.409-21.51-45.102-30.536-57.339-33.915-74.08-30.981-90.838-33.254-92.715-35.633-94.467-38.095-96.105-39.393-96.968-40.719-97.79-42.066-98.583-43.592-89.194-43.809-79.848-42.802-70.87-41.121-55.888-36.01-41.945-27.666-30.63-19.272-19.246-9.601-11.926 0-7.288ZM-24.87-85.27C-26.184-71.905-23.061-58.674-16.033-49.141-11.375-42.825-6.037-38.671-.703-35.957-3.126-55.087-11.9-72.263-24.87-85.27M-64.186-49.835C-65.773-56.103-66.952-62.543-67.652-69.126-68.157-73.869-68.41-78.68-68.446-83.533-68.507-91.692-67.921-99.969-66.632-108.269-70.498-109.128-74.462-109.719-78.505-110.03-80.323-94.95-80.322-79.992-78.561-65.576-78.203-62.651-77.77-59.751-77.269-56.875-76.349-51.601-75.197-46.412-73.798-41.334-73.155-38.997-72.454-36.688-71.71-34.399-66.877-19.531-59.945-5.721-50.979 6.438-50.463 7.139-49.938 7.815-49.415 8.499-44.642 6.554-39.279 5.476-33.465 5.256-37.388 1.298-41.191-3.111-44.822-8.033-52.347-18.238-58.093-29.866-62.06-42.361-62.84-44.82-63.547-47.312-64.186-49.835" fill="#e4361f"/>
<path transform="matrix(1,0,0,-1,218.5965,85.10199)" d="M0 0C0 16.746 4.881 32.364 13.267 45.544V-100.581C8.871-100.706 4.446-101.024 0-101.542ZM20.075 54.814C24.177 59.674 28.806 64.073 33.885 67.913V-101.456C29.325-100.93 24.718-100.626 20.075-100.542ZM40.692 72.562C45.052 75.24 49.675 77.522 54.505 79.39V-105.433C49.962-104.192 45.354-103.187 40.692-102.416ZM61.312 81.693C65.446 82.899 69.707 83.795 74.072 84.363V-112.412C69.89-110.552 65.634-108.908 61.312-107.483ZM80.879 84.995C82.279 85.063 83.686 85.102 85.102 85.102 88.456 85.102 91.759 84.885 95.013 84.506V-39.591C95.013-58.224 102.296-72.533 114.666-80.31 114.36-80.716 114.05-81.109 113.746-81.521 104.725-93.756 97.663-107.572 92.639-122.422 88.8-119.964 84.878-117.708 80.879-115.661Z" fill="#e4361f"/>
<path transform="matrix(1,0,0,-1,118.88081,483.8482)" d="M0 0C-2.221 0-4.111 .459-5.662 1.381-7.209 2.299-8.392 3.581-9.197 5.229-10.006 6.877-10.411 8.8-10.411 11-10.411 13.211-10.006 15.142-9.197 16.795-8.392 18.448-7.209 19.733-5.662 20.651-4.111 21.572-2.221 22.032 0 22.032 1.095 22.032 2.159 21.889 3.197 21.609 4.23 21.326 5.18 20.895 6.031 20.309 6.887 19.725 7.588 18.983 8.138 18.085 8.683 17.187 9.015 16.133 9.134 14.921H5.403C5.309 15.677 5.034 16.362 4.583 16.977 4.131 17.594 3.514 18.082 2.735 18.445 1.951 18.806 1.017 18.985-.062 18.985-1.624 18.985-2.896 18.624-3.867 17.903-4.837 17.179-5.548 16.216-5.994 15.01-6.441 13.803-6.664 12.466-6.664 11-6.664 9.544-6.441 8.213-5.994 7.007-5.548 5.8-4.837 4.842-3.856 4.129-2.88 3.418-1.593 3.062 0 3.062 1.277 3.062 2.341 3.285 3.197 3.732 4.053 4.178 4.702 4.803 5.149 5.613 5.595 6.42 5.839 7.349 5.88 8.403H.208V11.366H9.534V9.454C9.534 7.583 9.171 5.937 8.449 4.521 7.728 3.101 6.659 1.993 5.242 1.196 3.83 .4 2.081 0 0 0" fill="#e4361f"/>
<path transform="matrix(1,0,0,-1,139.32442,483.56019)" d="M0 0V21.456H14.029V18.396H3.669V12.482H13.136V9.516H3.669V3.06H14.029V0Z" fill="#e4361f"/>
<path transform="matrix(1,0,0,-1,171.2327,483.8482)" d="M0 0C-1.583 0-3.01 .234-4.282 .701-5.548 1.17-6.56 1.902-7.302 2.901-8.045 3.9-8.418 5.208-8.418 6.822H-4.687C-4.666 5.847-4.443 5.076-4.017 4.513-3.591 3.95-3.021 3.55-2.304 3.316-1.588 3.083-.794 2.966 .078 2.966 .908 2.966 1.656 3.078 2.32 3.301 2.984 3.524 3.508 3.869 3.898 4.336 4.287 4.803 4.479 5.395 4.479 6.106 4.479 6.765 4.318 7.308 4.002 7.733 3.68 8.156 3.145 8.532 2.393 8.857 1.635 9.179 .602 9.524-.716 9.884-2.258 10.3-3.56 10.762-4.624 11.27-5.688 11.781-6.493 12.428-7.038 13.209-7.588 13.99-7.858 14.991-7.858 16.214-7.858 17.519-7.546 18.601-6.918 19.457-6.29 20.311-5.413 20.952-4.287 21.378-3.161 21.803-1.842 22.016-.337 22.016 1.1 22.016 2.408 21.796 3.597 21.354 4.78 20.913 5.73 20.241 6.441 19.338 7.152 18.435 7.51 17.296 7.51 15.926H3.778C3.789 16.99 3.394 17.789 2.59 18.326 1.785 18.861 .815 19.13-.337 19.13-1.495 19.13-2.419 18.905-3.119 18.453-3.815 18.002-4.162 17.324-4.162 16.419-4.162 15.9-4.012 15.451-3.716 15.072-3.415 14.696-2.886 14.348-2.123 14.029-1.355 13.709-.275 13.354 1.116 12.96 2.751 12.503 4.09 12.015 5.133 11.493 6.176 10.974 6.944 10.307 7.443 9.493 7.946 8.68 8.195 7.609 8.195 6.283 8.195 4.837 7.832 3.651 7.11 2.727 6.389 1.801 5.408 1.116 4.178 .67 2.943 .223 1.552 0 0 0" fill="#e4361f"/>
<path transform="matrix(1,0,0,-1,192.76633,483.56019)" d="M0 0V18.381H-5.917V21.456H9.56V18.381H3.68V0Z" fill="#e4361f"/>
<path transform="matrix(1,0,0,-1,-92.30179,547.9242)" d="M304.141 85.82H307.805V64.364H304.141Z" fill="#e4361f"/>
<path transform="matrix(1,0,0,-1,235.04431,460.3191)" d="M0 0 3.026 4.352H6.835L2.595 0ZM1.687-20.501C3.239-20.501 4.495-20.137 5.45-19.416 6.405-18.692 7.105-17.729 7.552-16.522 7.998-15.316 8.221-13.985 8.221-12.529 8.221-11.052 7.998-9.711 7.552-8.504 7.105-7.297 6.405-6.337 5.45-5.618 4.495-4.902 3.239-4.544 1.687-4.544 .125-4.544-1.142-4.902-2.107-5.618-3.073-6.337-3.773-7.297-4.209-8.504-4.645-9.711-4.863-11.052-4.863-12.529-4.863-13.985-4.645-15.316-4.209-16.522-3.773-17.729-3.073-18.692-2.107-19.416-1.142-20.137 .125-20.501 1.687-20.501M1.687-23.529C-.566-23.529-2.46-23.07-3.996-22.148-5.533-21.23-6.695-19.948-7.479-18.3-8.268-16.652-8.657-14.729-8.657-12.529-8.657-10.328-8.268-8.403-7.479-6.75-6.695-5.099-5.533-3.809-3.996-2.886-2.46-1.959-.566-1.497 1.687-1.497 3.929-1.497 5.813-1.959 7.339-2.886 8.865-3.809 10.022-5.099 10.816-6.75 11.605-8.403 11.999-10.328 11.999-12.529 11.999-14.729 11.605-16.652 10.816-18.3 10.022-19.948 8.865-21.23 7.339-22.148 5.813-23.07 3.929-23.529 1.687-23.529" fill="#e4361f"/>
<path transform="matrix(1,0,0,-1,257.9428,483.56019)" d="M0 0V21.456H3.649L14.475 5.691V21.456H17.932V0H14.283L3.441 15.83V0Z" fill="#e4361f"/>
<path transform="matrix(1,0,0,-1,304.92314,475.1289)" d="M0 0H6.441L3.218 9.391ZM-6.586-8.431 1.308 13.024H5.164L12.991-8.431H9.181L7.396-3.075H-.929L-2.792-8.431Z" fill="#e4361f"/>
<path transform="matrix(1,0,0,-1,335.9543,483.8482)" d="M0 0C-2.221 0-4.111 .459-5.662 1.381-7.209 2.299-8.392 3.581-9.197 5.229-10.006 6.877-10.411 8.8-10.411 11-10.411 13.211-10.006 15.142-9.197 16.795-8.392 18.448-7.209 19.733-5.662 20.651-4.111 21.572-2.221 22.032 0 22.032 1.095 22.032 2.159 21.889 3.197 21.609 4.23 21.326 5.18 20.895 6.031 20.309 6.887 19.725 7.588 18.983 8.138 18.085 8.683 17.187 9.015 16.133 9.134 14.921H5.403C5.309 15.677 5.034 16.362 4.583 16.977 4.131 17.594 3.514 18.082 2.735 18.445 1.951 18.806 1.017 18.985-.062 18.985-1.624 18.985-2.896 18.624-3.867 17.903-4.837 17.179-5.548 16.216-5.994 15.01-6.441 13.803-6.664 12.466-6.664 11-6.664 9.544-6.441 8.213-5.994 7.007-5.548 5.8-4.837 4.842-3.856 4.129-2.88 3.418-1.593 3.062 0 3.062 1.277 3.062 2.341 3.285 3.197 3.732 4.053 4.178 4.702 4.803 5.149 5.613 5.595 6.42 5.839 7.349 5.88 8.403H.208V11.366H9.534V9.454C9.534 7.583 9.171 5.937 8.449 4.521 7.728 3.101 6.659 1.993 5.242 1.196 3.83 .4 2.081 0 0 0" fill="#e4361f"/>
<path transform="matrix(1,0,0,-1,360.0672,471.8748)" d="M0 0H4.24C4.982 0 5.642 .132 6.207 .397 6.778 .662 7.225 1.048 7.557 1.554 7.884 2.058 8.05 2.665 8.05 3.379 8.05 4.45 7.728 5.276 7.084 5.849 6.441 6.423 5.553 6.711 4.417 6.711H0ZM-3.669-11.685V9.77H4.796C6.103 9.77 7.282 9.573 8.335 9.181 9.389 8.787 10.224 8.167 10.847 7.315 11.47 6.467 11.781 5.351 11.781 3.968 11.781 2.608 11.408 1.451 10.666 .493 9.918-.465 8.807-1.124 7.334-1.484 8.195-1.622 8.891-1.892 9.42-2.297 9.949-2.701 10.385-3.249 10.717-3.939 11.055-4.63 11.356-5.481 11.621-6.49L13.037-11.685H9.228L8.112-7.141C7.899-6.238 7.65-5.483 7.365-4.871 7.079-4.261 6.695-3.802 6.218-3.493 5.74-3.184 5.091-3.031 4.271-3.031H0V-11.685Z" fill="#e4361f"/>
<path transform="matrix(1,0,0,-1,383.2979,460.3191)" d="M0 0 3.031 4.352H6.84L2.6 0ZM-.14-1.785H3.524V-23.241H-.14Z" fill="#e4361f"/>
<path transform="matrix(1,0,0,-1,408.04924,483.8482)" d="M0 0C-2.201 0-4.069 .459-5.61 1.381-7.152 2.299-8.325 3.581-9.134 5.229-9.944 6.877-10.344 8.8-10.344 11-10.344 13.201-9.944 15.126-9.134 16.779-8.325 18.43-7.152 19.72-5.61 20.643-4.069 21.57-2.201 22.032 0 22.032 1.562 22.032 3.026 21.759 4.386 21.219 5.745 20.677 6.861 19.86 7.733 18.772 8.605 17.682 9.098 16.32 9.212 14.683H5.486C5.367 15.661 5.05 16.465 4.526 17.099 4.007 17.729 3.353 18.201 2.569 18.515 1.78 18.829 .924 18.985 0 18.985-1.562 18.985-2.829 18.622-3.794 17.895-4.759 17.166-5.46 16.198-5.896 14.994-6.332 13.787-6.55 12.456-6.55 11-6.55 9.555-6.332 8.229-5.896 7.022-5.46 5.815-4.759 4.853-3.794 4.129-2.829 3.407-1.562 3.044 0 3.044 1.604 3.044 2.896 3.451 3.867 4.264 4.837 5.078 5.392 6.259 5.533 7.811H9.28C9.129 6.101 8.652 4.663 7.842 3.501 7.038 2.336 5.963 1.461 4.624 .877 3.285 .293 1.744 0 0 0" fill="#e4361f"/>
<path transform="matrix(1,0,0,-1,437.24839,480.8198)" d="M0 0C1.552 0 2.808 .363 3.763 1.085 4.718 1.809 5.418 2.771 5.865 3.978 6.311 5.185 6.534 6.516 6.534 7.972 6.534 9.448 6.311 10.79 5.865 11.997 5.418 13.203 4.718 14.164 3.763 14.882 2.808 15.599 1.552 15.957 0 15.957-1.562 15.957-2.829 15.599-3.794 14.882-4.759 14.164-5.46 13.203-5.896 11.997-6.332 10.79-6.55 9.448-6.55 7.972-6.55 6.516-6.332 5.185-5.896 3.978-5.46 2.771-4.759 1.809-3.794 1.085-2.829 .363-1.562 0 0 0M0-3.028C-2.253-3.028-4.147-2.569-5.683-1.648-7.219-.729-8.382 .553-9.166 2.201-9.955 3.848-10.344 5.771-10.344 7.972-10.344 10.172-9.955 12.098-9.166 13.751-8.382 15.401-7.219 16.691-5.683 17.615-4.147 18.541-2.253 19.003 0 19.003 2.242 19.003 4.126 18.541 5.652 17.615 7.178 16.691 8.335 15.401 9.129 13.751 9.918 12.098 10.313 10.172 10.313 7.972 10.313 5.771 9.918 3.848 9.129 2.201 8.335 .553 7.178-.729 5.652-1.648 4.126-2.569 2.242-3.028 0-3.028" fill="#e4361f"/>
<path transform="matrix(1,0,0,-1,458.46,483.56019)" d="M0 0V21.456H3.664V3.202H13.198V0Z" fill="#e4361f"/>
<path transform="matrix(1,0,0,-1,485.9362,475.1289)" d="M0 0H6.441L3.223 9.391ZM-6.581-8.431 1.308 13.024H5.164L12.991-8.431H9.181L7.396-3.075H-.924L-2.787-8.431Z" fill="#e4361f"/>
<path transform="matrix(1,0,0,-1,25.60801,416.4633)" d="M0 0C0-4.853 2.18-7.196 20.926-7.196 30.969-7.196 45.361-2.343 45.361 8.369 45.361 11.885 44.691 12.889 44.691 12.889 45.195 13.224 47.37 13.559 49.212 13.559 53.561 13.559 57.578 9.877 57.578 4.521 57.578-10.878 41.847-14.561 25.442-14.561H-25.608V-8.535H-20.755C-14.558-8.535-12.217-4.017-12.217-1.004V85.698C-12.217 88.041-12.887 93.901-20.921 93.901H-25.27V98.754H14.901V93.901H8.205C4.188 93.901 0 91.223 0 86.367Z" fill="#e4361f"/>
<path transform="matrix(1,0,0,-1,165.53672,426.6721)" d="M0 0V-4.352H-8.538C-21.928-4.352-22.26 4.853-22.26 9.539V35.15H-33.144C-53.727 35.15-65.446 30.463-65.446 16.904-65.446 6.026-56.909 1.339-49.71 1.339-38.5 1.339-33.813 8.87-33.813 8.87-33.144 8.87-30.294 6.695-30.294 4.183-30.294 .67-31.971-5.525-50.214-5.525-60.594-5.525-77.16 .166-77.16 17.073-77.16 37.659-57.412 42.346-32.972 42.346H-22.26V50.214C-22.26 57.744-22.597 71.638-41.178 71.638-57.578 71.638-62.265 60.422-62.265 52.388-62.265 52.388-70.465 52.557-70.465 61.261-70.465 71.469-57.916 78.834-41.178 78.834-22.764 78.834-11.05 71.804-11.05 50.214V12.552C-11.05 4.687-8.87 0-2.512 0Z" fill="#e4361f"/>
<path transform="matrix(1,0,0,-1,265.79273,426.6721)" d="M0 0V-4.352H-10.712C-19.753-4.352-23.433 2.678-23.433 10.544V45.862C-23.433 62.934-30.798 69.63-43.02 69.63-57.412 69.63-68.794 56.909-68.794 35.819V8.369C-68.794 4.352-66.952 0-62.265 0H-58.917V-4.352H-91.895V0H-87.54C-84.359 0-79.844 2.678-79.844 7.365V61.595C-79.844 65.444-81.011 70.634-88.044 70.634H-91.895V74.651H-80.845C-71.14 74.651-69.297 68.96-69.297 62.431-65.114 69.63-55.072 77.664-41.344 77.664-21.258 77.664-12.223 65.613-12.223 49.71V10.712C-12.223 6.695-10.214 0-2.346 0Z" fill="#e4361f"/>
<path transform="matrix(1,0,0,-1,352.65333,415.7938)" d="M0 0C0-5.857 2.849-10.878 8.538-10.878H13.562V-15.23H1.173C-4.687-15.23-11.548-11.213-11.548-1.84V29.627C-11.548 46.365-20.085 58.417-36.989 58.417-55.066 58.417-64.606 41.009-64.606 23.267-64.606 5.525-54.397-10.043-38.661-10.043-29.121-10.043-23.599-4.518-22.764-3.514-22.764-3.514-20.252-6.36-20.252-8.87-20.252-16.569-34.815-17.073-39.834-17.073-61.092-17.073-76.491 1.173-76.491 23.602-76.491 42.849-66.282 65.613-36.989 65.613-25.94 65.613-15.565 61.095-11.548 54.231V87.875C-11.548 92.058-11.88 98.084-20.252 98.084H-24.601V102.436H-11.88C-2.844 102.436 0 97.918 0 89.046Z" fill="#e4361f"/>
<path transform="matrix(1,0,0,-1,402.53483,397.7169)" d="M0 0C-1.339 1.339-2.009 4.687-2.009 5.691-2.009 10.881 5.688 10.881 12.721 10.881H33.138C36.652 10.881 38.328 11.885 38.328 15.399 38.328 29.459 30.964 42.514 14.558 42.514-5.024 42.514-14.06 24.103-14.06 5.691-14.06-11.047-3.348-27.951 13.39-27.951 29.791-27.951 36.154-18.913 39.667-13.222 42.346-14.226 44.858-17.573 44.858-19.582 44.858-26.947 35.313-35.316 13.39-35.316-14.231-35.316-25.613-13.056-25.613 5.691-25.613 30.463-11.885 49.879 15.061 49.879 34.981 49.879 49.373 35.819 49.373 15.568 49.373 3.348 45.19 3.348 35.147 3.348 9.036 3.348 5.356 3.348 0 0" fill="#e4361f"/>
<path transform="matrix(1,0,0,-1,526.8882,365.2454)" d="M0 0C0-4.183-2.341-9.205-7.193-9.205-10.712-9.205-11.714-7.03-11.714-7.03-11.044-6.526-9.705-3.013-9.705-.836-9.705 4.186-12.55 8.872-19.582 8.872-31.799 8.872-39.501-6.695-39.501-23.934V-51.384C-39.501-56.071-38.162-61.427-32.137-61.427H-29.625V-65.779H-62.597V-61.427H-58.077C-51.885-61.427-50.546-55.736-50.546-52.388V-1.339C-50.546 6.529-54.397 8.872-58.746 8.872H-62.597V13.224H-50.712C-43.519 13.224-40 9.207-39.501 2.009-36.154 9.542-27.45 15.734-18.913 15.734-5.185 15.734 0 8.704 0 0" fill="#e4361f"/>
<path transform="matrix(1,0,0,-1,607.3961,426.6721)" d="M0 0V-4.352H-8.532C-21.923-4.352-22.26 4.853-22.26 9.539V35.15H-33.138C-53.727 35.15-65.441 30.463-65.441 16.904-65.441 6.026-56.909 1.339-49.71 1.339-38.495 1.339-33.808 8.87-33.808 8.87-33.138 8.87-30.294 6.695-30.294 4.183-30.294 .67-31.966-5.525-50.214-5.525-60.589-5.525-77.16 .166-77.16 17.073-77.16 37.659-57.407 42.346-32.972 42.346H-22.26V50.214C-22.26 57.744-22.592 71.638-41.173 71.638-57.578 71.638-62.265 60.422-62.265 52.388-62.265 52.388-70.465 52.557-70.465 61.261-70.465 71.469-57.911 78.834-41.173 78.834-22.764 78.834-11.044 71.804-11.044 50.214V12.552C-11.044 4.687-8.87 0-2.507 0Z" fill="#e4361f"/>
</g>
</g>
</g>
</g>
</svg>
